# xmcd
#
# Track frame offsets:
#	150
#	25974
#	39458
#	58208
#	74747
#	87533
#	101742
#	128310
#	141604
#	155029
#	167184
#	184040
#	197693
#	206423
#	222638
#	235798
#	254249
#	266305
#	279149
#	292161
#
# Disc length: 4082 seconds
#
# Revision: 0
# Processed by: cddbd v1.5.1PL0 Copyright (c) Steve Scherf et al.
# Submitted via: dBpowerAMP V4.0
#
DISCID=430ff014
DTITLE=Varios - El fonografo del recuerdo cubano
DYEAR=2003
DGENRE=Guajira
TTITLE0=Mosaico
TTITLE1=Como fue
TTITLE2=Los soneros de ayer
TTITLE3=Son de la loma
TTITLE4=Total
TTITLE5=La flor de canela
TTITLE6=La bella cubana
TTITLE7=Cubanacan
TTITLE8=Angustia
TTITLE9=Cumbia guajira
TTITLE10=Santa barbara
TTITLE11=Busco tu olvido
TTITLE12=Pasito tun-tun
TTITLE13=Pare cochero
TTITLE14=Las maracas de cuba
TTITLE15=Messie julian
TTITLE16=Perejil pa' la cotorra
TTITLE17=Humo y espuma
TTITLE18=Para que tu veas
TTITLE19=Siboney
EXTD=Una aportacion de mi parte para enriquecer su base de datos.
EXTT0=
EXTT1=
EXTT2=
EXTT3=
EXTT4=
EXTT5=
EXTT6=
EXTT7=
EXTT8=
EXTT9=
EXTT10=
EXTT11=
EXTT12=
EXTT13=
EXTT14=
EXTT15=
EXTT16=
EXTT17=
EXTT18=
EXTT19=
PLAYORDER=
